<?xml version="1.0" encoding="UTF-8"?>
<svg id="uuid-f00b79df-f373-43b0-aa2e-b86071139660" data-name="Layer_1" xmlns="http://www.w3.org/2000/svg" viewBox="0 0 134.02 37.52">
  <path d="M5.02,36.02h22.36v1.12H0V7.09h5.02v28.93Z" fill="#0f0f0f"/>
  <path d="M41.72,37.52c-22.62,0-22.62-30.82,0-30.82s22.62,30.82,0,30.82ZM41.72,7.6c-15.97,0-16.22,29.02,0,29.02s16.27-29.02,0-29.02Z" fill="#0f0f0f"/>
  <path d="M77.35,37.52c-11.29,0-16.91-7.68-16.91-15.41s5.62-15.41,16.91-15.41c7.73,0,12.83,3.91,15.28,8.54l-.9.6c-2.27-4.46-7.08-8.24-14.38-8.24-7.98,0-11.98,7.25-11.98,14.51s3.99,14.51,11.98,14.51c11.46,0,10.52-13.95,10.52-13.95h-15.11v-1.12h20.09s1.03,15.97-15.5,15.97Z" fill="#0f0f0f"/>
  <path d="M95.94,2.54C95.94,1.12,97.06,0,98.43,0s2.53,1.12,2.53,2.53-1.12,2.49-2.53,2.49-2.49-1.12-2.49-2.49ZM95.94,37.13V7.09h5.02v30.05h-5.02Z" fill="#0f0f0f"/>
  <path d="M134.02,7.09v30.05h-5.02c-.09-.26-7.12-22.88-18.84-27.9-.21-.09-.47-.21-.73-.3l-.34.34s2.1,1.5,2.1,5.71v22.15h-5.02V14.17c-.17-3.43-.86-5.97-3.52-5.97v-.9s1.42-.21,3.05-.21c12.36,0,20.47,18.5,23.35,26.4V7.09h4.98Z" fill="#0f0f0f"/>
</svg>