<?xml version="1.0" encoding="UTF-8"?>
<svg id="uuid-1ddabe00-3ff8-463f-95bd-01f5f16d8407" data-name="Layer_1" xmlns="http://www.w3.org/2000/svg" viewBox="0 0 15.32 17">
  <path d="M15.12,7.85l-2.04-2-.27-.26-.54-.53c-.22-.22-.58-.23-.81,0-.04.04-.08.09-.11.15l-1.87,3.52c-.24.45.13,1.01.61.93l1.04-.16c-.45,1.97-2.22,3.45-4.33,3.45-2.53,0-4.57-2.12-4.43-4.68.12-2.28,1.98-4.11,4.26-4.2.71-.03,1.42.11,2.06.42.41.19.89.13,1.23-.15.68-.54.56-1.62-.22-1.99-3.4-1.6-7.46-.13-9.06,3.27C.23,6.49,0,7.46,0,8.44c-.03,3.79,3.03,6.87,6.81,6.87,3.56,0,6.47-2.73,6.78-6.2l1.23-.19c.49-.07.67-.72.31-1.07h0Z"/>
</svg>