<?xml version="1.0" encoding="UTF-8"?>
<svg id="uuid-497f0667-8471-433c-ab63-efbde4f6f11f" data-name="Layer_1" xmlns="http://www.w3.org/2000/svg" viewBox="0 0 104.59 28.89">
  <path d="M16.15,0h11.06v5.09h-11.06v23.8h-5.09V5.09H0V0h16.15Z" fill="#0f0f0f"/>
  <path d="M36.75,3.39c0,1.87-1.51,3.41-3.38,3.41s-3.41-1.54-3.41-3.41S31.46,0,33.36,0s3.38,1.51,3.38,3.38ZM30.8,10.18h5.09v18.71h-5.09V10.18Z" fill="#0f0f0f"/>
  <path d="M70.09,19.54v9.35h-5.09v-9.35c0-2.34-1.71-4.24-3.82-4.24s-3.82,1.9-3.82,4.24v9.35h-5.12v-9.35c0-2.2-1.49-4.02-3.44-4.24h-.38c-2.06,0-3.74,1.82-3.82,4.07v9.52h-5.09V10.18h5.09v2.39c1.38-1.49,3.16-2.39,5.12-2.39.14,0,.27.03.39.03.77.05,1.49.22,2.15.52,1.05.44,1.98,1.16,2.75,2.06,1.6-1.62,3.8-2.61,6.19-2.61,1.38,0,2.67.33,3.82.91,3,1.51,5.09,4.73,5.09,8.45Z" fill="#0f0f0f"/>
  <path d="M87.05,20.86l4.15,3.14c-3.3,5.89-11.88,6.52-16.12,1.51-.58-.63-1.05-1.35-1.4-2.15-.55-1.16-.85-2.45-.85-3.82,0-5.15,4.37-9.33,9.77-9.33,3.08-.06,6.13,1.46,7.98,3.93.61.8.39,1.93-.47,2.42l-3.03,1.79-7.48,4.46c2.31,1.84,6.36,1.02,7.43-1.87,0-.03.03-.05.03-.08ZM78.11,20.75l6.82-4.07c.33-.19.33-.66,0-.83-2.89-1.54-7.07.36-7.02,3.69,0,.41.08.83.19,1.21Z" fill="#0f0f0f"/>
  <path d="M105.01,10.18v5.28c-.41-.11-.85-.17-1.29-.17-2.59,0-4.68,1.9-4.68,4.24v9.35h-5.09V10.18l3.82,4.46c1.49-2.67,4.15-4.46,7.24-4.46Z" fill="#0f0f0f"/>
</svg>